<?xml version="1.0" standalone="no"?>
<!DOCTYPE svg PUBLIC "-//W3C//DTD SVG 20010904//EN"
 "http://www.w3.org/TR/2001/REC-SVG-20010904/DTD/svg10.dtd">
<svg version="1.0" xmlns="http://www.w3.org/2000/svg"
 width="1024.000000pt" height="1024.000000pt" viewBox="0 0 1024.000000 1024.000000"
 preserveAspectRatio="xMidYMid meet">

<g transform="translate(0.000000,1024.000000) scale(0.100000,-0.100000)"
fill="#000000" stroke="none">
<path d="M4650 9285 c-726 -76 -1451 -359 -2025 -789 -233 -174 -549 -471
-716 -671 -521 -625 -850 -1373 -943 -2146 -115 -943 68 -1820 547 -2624 303
-508 761 -990 1257 -1322 139 -93 297 -186 309 -181 12 4 1937 1922 2085 2078
468 492 686 953 686 1452 0 397 -157 766 -449 1059 -175 175 -370 300 -613
393 -240 92 -424 126 -709 133 -243 6 -402 -10 -604 -62 -183 -47 -289 -86
-450 -165 -237 -115 -427 -252 -601 -433 -233 -240 -378 -476 -478 -777 -172
-519 -149 -1089 66 -1670 61 -164 173 -397 262 -544 36 -60 64 -111 62 -113
-5 -6 -126 130 -184 207 -376 500 -564 1061 -564 1680 0 455 86 838 277 1237
440 918 1244 1525 2225 1678 164 26 504 31 680 11 592 -69 1161 -331 1571
-723 348 -334 603 -766 714 -1213 51 -203 60 -296 59 -585 0 -246 -3 -283 -27
-415 -108 -604 -366 -1094 -963 -1837 -186 -231 -602 -716 -879 -1023 -256
-284 -443 -489 -612 -672 l-172 -186 107 -11 c494 -52 915 -35 1362 55 1150
231 2206 998 2791 2029 474 833 634 1825 453 2795 -83 449 -285 979 -514 1355
-424 695 -1044 1258 -1765 1601 -482 229 -919 351 -1424 399 -201 18 -641 18
-821 0z"/>
</g>
</svg>
